# xmcd
#
# Track frame offsets:
#	150
#	15825
#	28236
#	52784
#	74221
#	85725
#	100491
#	115631
#	125804
#	147170
#	163810
#
# Disc length: 2425 seconds
#
# Revision: 1
# Processed by: cddbd v1.5.2PL0 Copyright (c) Steve Scherf et al.
# Submitted via: audiograbber 1.83.01
#
DISCID=9409770b
DTITLE=The Willie Dixons - Blue Album
DYEAR=1998
DGENRE=Pop
TTITLE0=The Willie Dixons - Walking by myself
TTITLE1=The Willie Dixons - Pretty thing
TTITLE2=The Willie Dixons - The same thing
TTITLE3=The Willie Dixons - Little red rooster
TTITLE4=The Willie Dixons - Hard time gettin' started
TTITLE5=The Willie Dixons - My babe
TTITLE6=The Willie Dixons - Mellow down easy
TTITLE7=The Willie Dixons - 29 Ways
TTITLE8=The Willie Dixons - Wang dang doodle
TTITLE9=The Willie Dixons - I ain't gonna be your monkey man
TTITLE10=The Willie Dixons - Big boss man
EXTD=
EXTT0=
EXTT1=
EXTT2=
EXTT3=
EXTT4=
EXTT5=
EXTT6=
EXTT7=
EXTT8=
EXTT9=
EXTT10=
PLAYORDER=
